<svg id="icons" xmlns="http://www.w3.org/2000/svg" viewBox="0 0 260 260"><defs><style>.cls-1{fill:#237aba}</style></defs><title>1</title><path class="cls-1" d="M76.86 188.31a60 60 0 0 1 0-117.08A110.58 110.58 0 0 1 105 41a90 90 0 1 0 0 177.49 110.58 110.58 0 0 1-28.14-30.18z"/><path class="cls-1" d="M170 39.77a90 90 0 1 0 90 90 90 90 0 0 0-90-90zm9 133.13v16.87h-.55L163 182.33V174a60.42 60.42 0 0 1-21.48-5.46l-.92-.43-.59-.28.1-.6.15-.9 1.87-11.56.33-2 .22-1.34 1.25.74 1.88 1.12a45.86 45.86 0 0 0 22.9 6.71c8.77 0 14.08-4 14.08-10.5s-2.84-9-16.26-14.42c-19.42-7.93-25.34-13.94-25.34-26.17 0-12 8.82-20.68 21.82-23.27V69.77h.87L179 77.2v8.15a40.21 40.21 0 0 1 14.66 4.49l1 .44.57.3-.1.58-.13.84-2 11.32-.38 2.13-.25 1.42-1.27-.87-1.91-1.31a32.47 32.47 0 0 0-18-5.7c-8.33 0-12.87 3.37-12.87 9.05 0 5.32 2.94 7.79 16.14 13.22 19.48 8 25.3 14.34 25.3 27.37.05 12.16-7.76 21.07-20.76 24.26z"/></svg>