<svg xmlns="http://www.w3.org/2000/svg" viewBox="0 0 260 260"><defs><style>.cls-1{fill:#237aba;}</style></defs><title>3</title><g id="icons"><path class="cls-1" d="M30.17,131a100.85,100.85,0,0,1,199.66-20.17h20.5A121,121,0,1,0,110.84,250.33v-20.5A100.87,100.87,0,0,1,30.17,131Z"/><path class="cls-1" d="M80.59,131a50.42,50.42,0,0,1,96.63-20.17h21.44a70.59,70.59,0,1,0-87.82,87.81V177.22A50.42,50.42,0,0,1,80.59,131Z"/><polygon class="cls-1" points="234.73 149.16 120.64 120.64 149.16 234.73 177.69 206.21 220.47 248.99 248.99 220.47 206.21 177.69 234.73 149.16"/></g></svg>