<svg xmlns="http://www.w3.org/2000/svg" viewBox="0 0 260 260"><defs><style>.cls-1{fill:#237aba;fill-rule:evenodd}</style></defs><title>5</title><path class="cls-1" d="M239.08 110h-11.37l-19.8-67.9a3.09 3.09 0 0 0-2.79-2.1H55.62a3.13 3.13 0 0 0-2.81 2.08L32.14 110H20.92A10.91 10.91 0 0 0 10 120.9v10.93A11.14 11.14 0 0 0 20.92 143H30v86.08A10.91 10.91 0 0 0 40.9 240h12.65c6 0 10.45-4.89 10.45-10.92V220h131v9.08A10.88 10.88 0 0 0 205.87 240h10.93c6 0 13.19-4.89 13.19-10.92V143h9.08A11.14 11.14 0 0 0 250 131.83V120.9a10.91 10.91 0 0 0-10.92-10.9zM70 60h120l15 50H55zm-5 110a15 15 0 1 1 15-15 15 15 0 0 1-15 15zm130 0a15 15 0 1 1 15-15 15 15 0 0 1-15 15z" id="icons"/></svg>