<?xml version="1.0" encoding="utf-8"?>
<!-- Generator: Adobe Illustrator 23.0.2, SVG Export Plug-In . SVG Version: 6.00 Build 0)  -->
<svg version="1.1" id="icons" xmlns="http://www.w3.org/2000/svg" xmlns:xlink="http://www.w3.org/1999/xlink" x="0px" y="0px"
	 viewBox="0 0 260 260" style="enable-background:new 0 0 260 260;" xml:space="preserve">
<style type="text/css">
	.st0{fill:#237ABA;}
</style>
<g>
	<path class="st0" d="M80,10l20,40l6,2c15.6,5.2,32.4,5.2,47.9,0l6-2l20-40l-16.7,3.3c-22,4.4-44.7,4.4-66.7,0L80,10z"/>
</g>
<g>
	<path class="st0" d="M170,60C170.3,60.1,169.8,59.8,170,60L170,60z"/>
</g>
<g>
	<path class="st0" d="M90,60C90.2,59.8,89.7,60.1,90,60L90,60z"/>
</g>
<g>
	<path class="st0" d="M170,60l-5.3,2.3l-6,2c-9.3,3.1-18.9,4.7-28.7,4.7s-19.4-1.6-28.7-4.7l-6-2L90,60c-40,27.1-70,67.1-70,104.8
		c0,46.8,49.2,84.8,110,84.8c60.8,0,110-38,110-84.8C240,127.1,210,87.1,170,60z M146.6,190.7c-2.6,2.2-5.7,3.9-9,5V210l-15-8.1
		v-5.6c-5.8-1-12.1-3.2-17.7-6.2l2.4-16.1c6.2,4.5,15.5,7.9,22,7.9c3.7,0,10.6-2.1,10.6-10.1c0-3.5-1.2-5.6-12.8-10.9
		c-9.3-4.3-22.1-10.2-22.1-25.4c0-10.4,7.5-19.2,17.6-21.8V100l15,8v5.8c4.2,0.8,8.3,2.1,12.4,4.1l-2.5,15.6
		c-6.5-3.8-12.6-5.6-18.8-5.6c-4.9,0-8.7,3.3-8.7,7.6c0,5.1,4.1,7.6,13.4,11.9c9.1,4.2,21.5,9.9,21.5,24.5
		C155,179.4,152,186,146.6,190.7z"/>
</g>
</svg>
