<svg xmlns="http://www.w3.org/2000/svg" xmlns:xlink="http://www.w3.org/1999/xlink" viewBox="0 0 600 600"><defs><style>.cls-1{isolation:isolate;}.cls-2{fill:url(#Degradado_sin_nombre_23);}.cls-3{fill:#1464a5;}.cls-4{fill:url(#Degradado_sin_nombre_45);}.cls-5{fill:#043263;opacity:0.6;mix-blend-mode:multiply;}.cls-6{fill:#fff;}.cls-7{fill:#2dcccd;}.cls-8{fill:url(#Degradado_sin_nombre_5);}.cls-9{fill:#49a5e6;}.cls-10{opacity:0.5;}.cls-11{fill:url(#linear-gradient);}.cls-12{fill:#eaf9fa;}.cls-13{fill:#f8cd50;}.cls-14{fill:url(#linear-gradient-2);}</style><linearGradient id="Degradado_sin_nombre_23" x1="115.38" y1="-119.84" x2="451.87" y2="513.01" gradientUnits="userSpaceOnUse"><stop offset="0" stop-color="#192647"/><stop offset="0" stop-color="#192647" stop-opacity="0.5"/><stop offset="1" stop-color="#192647" stop-opacity="0"/></linearGradient><linearGradient id="Degradado_sin_nombre_45" x1="526.24" y1="281.88" x2="345.97" y2="281.88" gradientUnits="userSpaceOnUse"><stop offset="0" stop-color="#043263"/><stop offset="1" stop-color="#043263" stop-opacity="0"/></linearGradient><linearGradient id="Degradado_sin_nombre_5" x1="350.53" y1="322.2" x2="196.95" y2="322.2" gradientUnits="userSpaceOnUse"><stop offset="0" stop-color="#028484" stop-opacity="0.6"/><stop offset="1" stop-color="#028484" stop-opacity="0"/></linearGradient><linearGradient id="linear-gradient" x1="163.88" y1="130.88" x2="247.23" y2="175.2" gradientUnits="userSpaceOnUse"><stop offset="0" stop-color="#eaf9fa"/><stop offset="1" stop-color="#eaf9fa" stop-opacity="0.2"/><stop offset="1" stop-color="#eaf9fa" stop-opacity="0.5"/></linearGradient><linearGradient id="linear-gradient-2" x1="257.43" y1="337.82" x2="303.26" y2="362.19" xlink:href="#linear-gradient"/></defs><title>_</title><g class="cls-1"><g id="Contenido"><path class="cls-2" d="M558.36,249.9H400.53V164.78a23,23,0,0,0-23-23H211.19a23,23,0,0,0-23,23V495a23,23,0,0,0,23,23H379.48a21.05,21.05,0,0,0,21-21.05v-83H558.36a17.87,17.87,0,0,0,13.8-6.51A17.77,17.77,0,0,0,576.24,396V267.78h0A17.88,17.88,0,0,0,558.36,249.9Z"/><rect class="cls-3" x="254.82" y="199.9" width="271.42" height="163.97" rx="17.88"/><path class="cls-4" d="M508.36,363.87A17.89,17.89,0,0,0,526.24,346V217.78a17.88,17.88,0,0,0-17.88-17.88H433.15L346,363.87Z"/><rect class="cls-5" x="254.82" y="224.04" width="271.42" height="27.21"/><rect class="cls-6" x="294.46" y="300.85" width="194.46" height="24.31" rx="2.33"/><rect class="cls-7" x="138.19" y="91.78" width="212.34" height="376.17" rx="23"/><path class="cls-8" d="M197,468H329.48a21.05,21.05,0,0,0,21-21.05V176.45Z"/><rect class="cls-9" x="159.24" y="137.18" width="170.24" height="40.27" rx="3"/><g class="cls-10"><path class="cls-11" d="M162,137.54a2.75,2.75,0,0,0-2.75,2.75v34.78a2.75,2.75,0,0,0,2.75,2.74h83.73l21.53-40.27Z"/></g><rect class="cls-12" x="159.24" y="222.66" width="46.68" height="40.27" rx="3"/><rect class="cls-12" x="221.02" y="222.66" width="46.68" height="40.27" rx="3"/><rect class="cls-12" x="282.8" y="222.66" width="46.68" height="40.27" rx="3"/><rect class="cls-12" x="159.24" y="275.75" width="46.68" height="40.27" rx="3"/><rect class="cls-12" x="221.02" y="275.75" width="46.68" height="40.27" rx="3"/><rect class="cls-12" x="282.8" y="275.75" width="46.68" height="40.27" rx="3"/><rect class="cls-12" x="159.24" y="328.83" width="46.68" height="40.27" rx="3"/><rect class="cls-12" x="221.02" y="328.83" width="46.68" height="40.27" rx="3"/><rect class="cls-12" x="159.24" y="381.92" width="46.68" height="40.27" rx="3"/><rect class="cls-12" x="221.02" y="381.92" width="46.68" height="40.27" rx="3"/><rect class="cls-13" x="282.8" y="328.83" width="46.68" height="93.36" rx="4.57"/><path class="cls-14" d="M287.37,328.83a4.58,4.58,0,0,0-4.57,4.57v59.51l36-64.08Z"/></g></g></svg>