<?xml version="1.0" encoding="utf-8"?>
<!-- Generator: Adobe Illustrator 23.0.1, SVG Export Plug-In . SVG Version: 6.00 Build 0)  -->
<svg version="1.1" id="Capa_1" xmlns="http://www.w3.org/2000/svg" xmlns:xlink="http://www.w3.org/1999/xlink" x="0px" y="0px"
	 viewBox="0 0 600 600" style="enable-background:new 0 0 600 600;" xml:space="preserve">
<style type="text/css">
	.st0{fill:url(#SVGID_1_);}
	.st1{fill:#043263;}
	.st2{fill:#49A5E6;}
	.st3{fill:url(#SVGID_2_);}
	.st4{fill:#2DCCCD;}
	.st5{fill:#004481;}
	.st6{fill:#1464A5;}
	.st7{fill:#D4EDFC;}
	.st8{clip-path:url(#SVGID_4_);}
	.st9{fill:none;}
	.st10{clip-path:url(#SVGID_6_);}
	.st11{opacity:0.5;fill:url(#SVGID_7_);enable-background:new    ;}
</style>
<title>_</title>
<g>
	<g id="Contenido">
		
			<linearGradient id="SVGID_1_" gradientUnits="userSpaceOnUse" x1="236.4344" y1="401.078" x2="420.2307" y2="55.4121" gradientTransform="matrix(1 0 0 -1 0 602)">
			<stop  offset="0" style="stop-color:#192647"/>
			<stop  offset="0" style="stop-color:#192647;stop-opacity:0.5"/>
			<stop  offset="1" style="stop-color:#192647;stop-opacity:0"/>
		</linearGradient>
		<path class="st0" d="M559.7,349.6l-93.3-59.3c0-0.4,0-0.8,0-1.2c0-69.8-56.5-126.4-126.3-126.5c-69.8,0-126.4,56.5-126.5,126.3
			c0,38.1,17.2,74.2,46.8,98.3l-75.7,131.2l-0.3-0.2c-1.3-0.7-2.9-0.3-3.6,1l-10.5,18.2c-0.7,1.3-0.3,2.9,1,3.6c0,0,0,0,0,0l2.6,1.5
			l0,0l28.1,16.2l0,0l2.6,1.5c1.3,0.7,2.9,0.3,3.6-1c0,0,0,0,0,0l10.5-18.2c0.7-1.3,0.3-2.9-1-3.6c0,0,0,0,0,0l-0.3-0.2L293,406.4
			c21,8.4,43.8,11,66.2,7.6v70.8h177.2V378.6l25.2-3.5l2.8-4.4C568.9,363.6,566.8,354.1,559.7,349.6z M340,389.1
			c-55.2,0-100-44.7-100-100c0-55.2,44.7-100,100-100c53.1,0,96.9,41.4,99.9,94.4l-104,66.1c-7.1,4.5-9.2,14-4.7,21.1l2.8,4.4
			l25.2,3.5v8.7C352.9,388.5,346.4,389.1,340,389.1z"/>
		<polygon class="st1" points="282.8,326.5 396.6,342.3 510.4,326.5 396.6,253.7 		"/>
		<polygon class="st2" points="308,309.8 396.6,253.7 485.2,309.8 485.2,436.3 308,436.3 		"/>
		
			<linearGradient id="SVGID_2_" gradientUnits="userSpaceOnUse" x1="485.19" y1="247.69" x2="332.58" y2="247.69" gradientTransform="matrix(1 0 0 -1 0 602)">
			<stop  offset="0" style="stop-color:#043263;stop-opacity:0.4"/>
			<stop  offset="1" style="stop-color:#043263;stop-opacity:0"/>
		</linearGradient>
		<polyline class="st3" points="425.2,272.3 485.2,309.8 485.2,436.3 332.6,436.3 		"/>
		<path class="st4" d="M380.7,351.1h31.8c3.7,0,6.6,3,6.6,6.6v78.5l0,0H374l0,0v-78.5C374,354.1,377,351.1,380.7,351.1
			C380.7,351.1,380.7,351.1,380.7,351.1z"/>
		<path class="st5" d="M395.5,230.6L284.7,301c-7.1,4.5-9.2,14-4.7,21.1c0,0,0,0,0,0l2.8,4.4l113.8-72.3l113.8,72.4l2.8-4.4
			c4.5-7.1,2.4-16.6-4.7-21.1c0,0,0,0,0,0l-110.8-70.4C397,230.1,396.2,230.1,395.5,230.6z"/>
		<path class="st5" d="M214.5,328.7l-93.1,161.3c-0.8,1.5-0.3,3.4,1.1,4.2l28.2,16.3c0.5,0.3,1,0.4,1.5,0.4c1.1,0,2.1-0.6,2.7-1.5
			l92.9-160.9l0.2-0.4L214.5,328.7z"/>
		<path class="st4" d="M119.1,488.8l10.5-18.2c0.7-1.3,2.3-1.7,3.6-1l33.3,19.2c1.3,0.7,1.7,2.3,1,3.6L157,510.7
			c-0.7,1.3-2.3,1.7-3.6,1l-33.3-19.2C118.8,491.7,118.4,490,119.1,488.8z"/>
		<g>
			<path class="st6" d="M288.8,366.9c-69.7,0-126.4-56.7-126.4-126.4c0-69.7,56.7-126.4,126.4-126.4c69.7,0,126.4,56.7,126.4,126.4
				v0C415.2,310.2,358.5,366.9,288.8,366.9z M288.8,140.6c-55.1,0-100,44.8-100,100s44.8,100,100,100s100-44.8,100-100
				C388.8,185.4,344,140.6,288.8,140.6z"/>
		</g>
		<path class="st7" d="M288.8,140.6c-55.1,0-100,44.8-100,100s44.8,100,100,100s100-44.8,100-100C388.8,185.4,344,140.6,288.8,140.6
			z"/>
		<g>
			<defs>
				<circle id="SVGID_3_" cx="288.8" cy="240.5" r="100.3"/>
			</defs>
			<clipPath id="SVGID_4_">
				<use xlink:href="#SVGID_3_"  style="overflow:visible;"/>
			</clipPath>
			<g class="st8">
				<path class="st9" d="M232.6,304.8l-4.6-7.2c-7.4-11.7-4-27.2,7.7-34.7c0,0,0,0,0,0l132.1-84c-34-43.7-97-51.5-140.7-17.5
					s-51.5,97-17.5,140.7c15.8,20.3,38.9,33.8,64.4,37.6v-29.2L232.6,304.8z"/>
				<polygon class="st1" points="232.6,304.8 274.1,310.5 274.1,278.4 				"/>
				<path class="st2" d="M348.8,320.9l-74.6-10.4v29.2c4.9,0.7,9.8,1.1,14.7,1.1C310.4,340.8,331.4,333.8,348.8,320.9z"/>
				<path class="st2" d="M274.1,310.5l74.6,10.4c34.7-25.9,48.9-71.2,35.1-112.3l-109.8,69.8V310.5z"/>
				<path class="st5" d="M228.1,297.6l4.6,7.2l41.4-26.5v-1L383.7,208c-3.6-10.5-8.9-20.3-15.8-29l-132.1,84
					C224.1,270.4,220.7,285.9,228.1,297.6z"/>
				<polygon class="st5" points="274.1,278.3 232.6,304.8 274.1,278.4 				"/>
				<path class="st5" d="M274.1,278.3l109.6-70.1c0-0.1,0-0.1-0.1-0.2l-109.6,69.3V278.3z"/>
				<path class="st5" d="M274.1,278.3v0.2l109.8-69.8l-0.1-0.5L274.1,278.3z"/>
			</g>
		</g>
		<g>
			<defs>
				<path id="SVGID_5_" d="M388.2,240.5c0,54.9-44.5,99.4-99.4,99.4s-99.4-44.5-99.4-99.4s44.5-99.4,99.4-99.4c0,0,0,0,0,0
					C343.7,141.1,388.2,185.6,388.2,240.5"/>
			</defs>
			<clipPath id="SVGID_6_">
				<use xlink:href="#SVGID_5_"  style="overflow:visible;"/>
			</clipPath>
			<g class="st10">
				<path class="st9" d="M338.3,154.3L239,326.5c47.6,27.4,108.4,11.1,135.8-36.4C402.2,242.6,385.9,181.8,338.3,154.3L338.3,154.3
					L338.3,154.3z"/>
				
					<linearGradient id="SVGID_7_" gradientUnits="userSpaceOnUse" x1="207.6165" y1="440.2865" x2="323.9765" y2="323.9265" gradientTransform="matrix(1 0 0 -1 0 602)">
					<stop  offset="0" style="stop-color:#FFFFFF;stop-opacity:0.5"/>
					<stop  offset="1" style="stop-color:#E8F7F8;stop-opacity:0.2"/>
					<stop  offset="1" style="stop-color:#FFFFFF;stop-opacity:0"/>
				</linearGradient>
				<path class="st11" d="M288.8,141.1c-54.9,0-99.4,44.6-99.3,99.5c0,35.4,18.9,68.1,49.5,85.9l99.4-172.2
					C323.3,145.6,306.2,141.1,288.8,141.1z"/>
			</g>
		</g>
	</g>
</g>
</svg>
