<svg id="e6e6fc60-2a9a-4d6e-bb1a-422883ec3469" data-name="Blue" xmlns="http://www.w3.org/2000/svg" viewBox="0 0 260 260"><path d="M130,10S40,64.6,40,152c0,52.1,48.7,94.3,85,98V222.3L76.5,173.8l7.1-7.1,41.5,41.5V182.3L76.6,133.8l7.1-7.1,41.5,41.5V142.3L86.7,103.8l7.1-7.1,31.5,31.5V102.3L106.8,83.8l7.1-7.1L125,88.2v-38h10V88.1l11.5-11.5,7.1,7.1L135,102.3v25.9l31.5-31.5,7.1,7.1L135,142.3v25.9l41.5-41.5,7.1,7.1L135,182.3v25.9l41.5-41.5,7.1,7.1L135,222.3V250c38.8-3.4,85-45.7,85-98.1C220,64.6,130,10,130,10Z"/></svg>