<?xml version="1.0" standalone="no"?>
<!DOCTYPE svg PUBLIC "-//W3C//DTD SVG 20010904//EN"
 "http://www.w3.org/TR/2001/REC-SVG-20010904/DTD/svg10.dtd">
<svg version="1.0" xmlns="http://www.w3.org/2000/svg"
 width="310.000000pt" height="310.000000pt" viewBox="0 0 310.000000 310.000000"
 preserveAspectRatio="xMidYMid meet">
<metadata>
Created by potrace 1.14, written by Peter Selinger 2001-2017
</metadata>
<g transform="translate(0.000000,310.000000) scale(0.100000,-0.100000)"
fill="#000000" stroke="none">
<path d="M0 1550 l0 -1550 1550 0 1550 0 0 1550 0 1550 -1550 0 -1550 0 0
-1550z m1572 763 c8 -10 90 -158 181 -329 91 -171 177 -331 190 -355 13 -24
48 -89 77 -144 29 -55 60 -113 70 -130 9 -16 47 -86 83 -155 36 -69 86 -163
112 -210 82 -152 98 -187 92 -204 -5 -14 -26 -16 -141 -16 l-135 0 -19 28
c-10 15 -76 137 -147 272 -70 135 -149 286 -175 335 -26 50 -80 152 -120 228
-59 113 -75 138 -92 135 -20 -3 -25 -12 -207 -363 -46 -88 -100 -191 -121
-230 -21 -38 -75 -142 -120 -230 -46 -88 -88 -163 -94 -167 -6 -4 -70 -8 -142
-8 -101 0 -134 3 -143 14 -11 13 61 156 334 661 18 33 128 240 245 460 117
220 219 406 228 413 21 16 26 15 44 -5z"/>
</g>
</svg>
